Coordinates
version=1
nRows=24
nColumns=24
inDegrees=yes

Units are S.I. units (second, meters, Newtons, ...)
Angles are in degrees.

endheader
time	pelvis_tilt	pelvis_list	pelvis_rotation	pelvis_tx	pelvis_ty	pelvis_tz	hip_flexion_r	hip_adduction_r	hip_rotation_r	knee_angle_r	ankle_angle_r	subtalar_angle_r	mtp_angle_r	hip_flexion_l	hip_adduction_l	hip_rotation_l	knee_angle_l	ankle_angle_l	subtalar_angle_l	mtp_angle_l	lumbar_extension	lumbar_bending	lumbar_rotation
      3.59500000	     -8.22347985	      8.05910470	     -0.22830257	     -0.74018146	     -0.01561149	      0.68822536	     40.18899541	    -11.51927641	     -2.09450822	    -64.15304150	    -16.39707697	    -17.37771854	     21.44217227	      5.32928219	     12.89459074	     16.92740692	    -14.76732292	     14.88635111	    -14.60726414	    -31.33290588	      6.81271815	     -9.03865595	     -7.58457231
      3.60000000	     -8.11129868	      7.95553503	     -0.14847365	     -0.73363091	     -0.01566201	      0.68811489	     40.46524710	    -11.35411304	     -2.08022020	    -63.12084546	    -16.03482011	    -17.26965261	     21.01246850	      4.55305173	     12.70746965	     16.99076346	    -14.34448772	     14.99953604	    -14.27497161	    -30.86113359	      6.62305191	     -8.89354644	     -7.78223489
      3.60500000	     -8.16291191	      7.87139454	     -0.08545602	     -0.72705851	     -0.01595236	      0.68800218	     40.90809899	    -11.16996219	     -1.97326407	    -62.03135034	    -15.75917401	    -17.11183002	     20.92967848	      3.95676146	     12.54375560	     17.06009895	    -13.92144651	     15.12125716	    -14.05328590	    -30.62817798	      6.62534512	     -8.75499330	     -7.94696536
      3.61000000	     -8.08258811	      7.77500707	      0.00255430	     -0.72051450	     -0.01612416	      0.68789542	     41.14638419	    -11.00098546	     -1.88616799	    -60.86421624	    -15.35465122	    -16.76272116	     20.88179700	      3.23620196	     12.35672550	     17.05563014	    -13.53125727	     15.27531025	    -13.66051330	    -30.27537828	      6.46681697	     -8.61124480	     -8.17872671
      3.61500000	     -8.00601736	      7.70659762	      0.06919387	     -0.71398115	     -0.01637279	      0.68781647	     41.37254547	    -10.84093047	     -1.74907249	    -59.64884867	    -14.96262821	    -16.37860042	     20.86855965	      2.52524616	     12.19272305	     16.96770090	    -13.13202506	     15.40987947	    -13.25863523	    -29.86638640	      6.31272107	     -8.49202443	     -8.39756065
      3.62000000	     -7.93809107	      7.64218615	      0.13464113	     -0.70743067	     -0.01666338	      0.68774207	     41.56990575	    -10.68380060	     -1.59063243	    -58.36763648	    -14.56401768	    -15.90894994	     20.92209712	      1.83200444	     12.02855148	     16.83898981	    -12.74608479	     15.53743234	    -12.81248361	    -29.40827189	      6.17531601	     -8.37314236	     -8.59822934
      3.62500000	     -7.88801082	      7.53467028	      0.21176246	     -0.70096249	     -0.01704994	      0.68788590	     41.74393748	    -10.46053858	     -1.44978985	    -57.03192305	    -14.15203388	    -15.53573191	     20.65614386	      1.24071427	     11.76631252	     16.16628100	    -12.38948374	     14.48869885	    -12.15333121	    -24.57081460	      6.03810954	     -8.24098246	     -8.82744355
      3.63000000	     -7.81534812	      7.51377294	      0.25652104	     -0.69443835	     -0.01741500	      0.68782586	     41.87192661	    -10.32815409	     -1.20034695	    -55.62436069	    -13.73462219	    -14.98263370	     20.92385742	      0.55044180	     11.64901688	     16.02740957	    -12.01297429	     14.64181617	    -11.69826758	    -24.38794502	      5.88748652	     -8.16060305	     -8.99906980
      3.63500000	     -7.75683927	      7.46897908	      0.31734786	     -0.68790911	     -0.01781051	      0.68774429	     41.96511391	    -10.18980717	     -0.97744743	    -54.14955447	    -13.32245858	    -14.44807771	     21.11938809	     -0.10036359	     11.50165562	     15.81676770	    -11.68368498	     14.82973962	    -11.08974551	    -24.06378995	      5.74881848	     -8.05144780	     -9.19100507
      3.64000000	     -7.75487559	      7.34870211	      0.37195215	     -0.68134179	     -0.01829421	      0.68779292	     42.06562085	     -9.96015226	     -0.78049912	    -52.61387401	    -12.94758249	    -13.99843343	     21.02495693	     -0.63649818	     11.23701658	     15.21320206	    -11.38097282	     14.40855838	    -10.22164272	    -21.09613795	      5.68185588	     -7.86834907	     -9.35850719
      3.64500000	     -7.78034483	      7.32344946	      0.42808546	     -0.67479006	     -0.01881461	      0.68763809	     42.18125641	     -9.84544816	     -0.51745093	    -51.03294060	    -12.55654663	    -13.49560563	     21.14870277	     -1.19858477	     11.12532452	     15.09471891	    -11.05167659	     14.49595521	     -9.78026708	    -20.93704559	      5.63461970	     -7.76352558	     -9.53642841
      3.65000000	     -7.65996294	      7.28214484	      0.48545084	     -0.66836079	     -0.01922189	      0.68760966	     42.10027016	     -9.71629082	     -0.27533406	    -49.40603395	    -12.17985888	    -13.14260607	     21.03280150	     -1.84171210	     10.96857396	     14.67086805	    -10.83948547	     14.69019213	     -8.83753698	    -20.24637961	      5.40107606	     -7.65578493	     -9.77092003
      3.65500000	     -7.66707572	      7.14455873	      0.50749345	     -0.66169546	     -0.01974435	      0.68765757	     42.08899847	     -9.47145453	     -0.08993894	    -47.71763547	    -11.78717688	    -12.90634061	     20.51164732	     -2.33823953	     10.69749456	     14.03577412	    -10.61986948	     14.59142639	     -7.86863662	    -18.45824564	      5.35386799	     -7.43542645	     -9.88915504
      3.66000000	     -7.76916922	      7.16888005	      0.66983002	     -0.65510122	     -0.02043665	      0.68728219	     42.18364261	     -9.51928677	      0.10119069	    -46.04733448	    -11.32649570	    -12.38386859	     20.58203319	     -2.77660305	     10.64816218	     13.98064589	    -10.38693906	     14.60363943	     -7.37217360	    -18.08877121	      5.38249225	     -7.37659131	    -10.14245037
      3.66500000	     -7.83645611	      7.10981292	      0.76295044	     -0.64853894	     -0.02113721	      0.68732971	     42.20783682	     -9.38422246	      0.32785076	    -44.37605825	    -10.80654709	    -12.11214281	     19.54587593	     -3.13839534	     10.44612551	     13.16345935	    -10.21122428	     13.71285596	     -6.41944766	    -13.74331823	      5.37331239	     -7.25717074	    -10.33502400
      3.67000000	     -7.81104786	      7.04993789	      0.90345996	     -0.64190162	     -0.02167319	      0.68706342	     42.06653523	     -9.34024529	      0.47446787	    -42.60355503	    -10.51598955	    -11.98002106	     19.58725199	     -3.65546487	     10.28885884	     12.89577086	    -10.08019578	     13.86744203	     -5.61722865	    -13.37583349	      5.25823819	     -7.10798373	    -10.62308325
      3.67500000	     -7.87832673	      6.94986750	      0.96173607	     -0.63511936	     -0.02234836	      0.68701810	     42.00887884	     -9.16918750	      0.69937282	    -40.84777993	    -10.19868501	    -11.93353280	     19.04425184	     -4.03259586	     10.07481142	     12.34491972	     -9.99382013	     13.88910648	     -4.64693675	    -12.22825486	      5.28303684	     -6.91100800	    -10.75454368
      3.68000000	     -8.00208696	      6.93608482	      1.21537120	     -0.62833753	     -0.02308175	      0.68650185	     41.98200009	     -9.27023241	      0.77567336	    -39.12017392	     -9.77280133	    -11.57884987	     18.96669102	     -4.37090169	      9.98864459	     12.26999443	     -9.92889816	     13.91174691	     -4.03019504	    -11.84182064	      5.34701596	     -6.80501304	    -11.09462230
      3.68500000	     -8.09028501	      6.85441656	      1.34177678	     -0.62155635	     -0.02384325	      0.68648346	     41.91400107	     -9.14568061	      1.02479229	    -37.45098134	     -9.26293645	    -11.34792051	     17.79388329	     -4.66778488	      9.77310776	     11.56048712	     -9.86112921	     13.12790932	     -3.09481451	     -8.03923791	      5.37976117	     -6.64760159	    -11.31165015
      3.69000000	     -8.19126706	      6.76453873	      1.57213435	     -0.61459509	     -0.02452737	      0.68602346	     41.78982098	     -9.14967984	      1.12691937	    -35.71769594	     -8.97073091	    -11.11837083	     17.87029897	     -5.00262132	      9.60400205	     11.46511786	     -9.86396259	     13.20286828	     -2.42589137	     -7.78798349	      5.45123867	     -6.45306402	    -11.60391476
      3.69500000	     -8.26902139	      6.65439617	      1.79661798	     -0.60762341	     -0.02521049	      0.68564628	     41.62800994	     -9.11906473	      1.25217356	    -34.03825937	     -8.65208210	    -10.83775673	     17.79676742	     -5.31443294	      9.40281519	     11.24134810	     -9.94626697	     13.29905457	     -1.57697912	     -7.31731971	      5.49400405	     -6.24297613	    -11.89852678
      3.70000000	     -8.34743063	      6.52497444	      1.95878835	     -0.60062485	     -0.02595178	      0.68559256	     41.47081570	     -8.97223532	      1.54203540	    -32.45781017	     -8.23728823	    -10.55535505	     16.99733486	     -5.58323912	      9.13643043	     10.58794176	     -9.95243263	     12.41595048	     -0.68548723	     -3.35655268	      5.54639581	     -6.03206323	    -12.11354269
      3.70500000	     -8.43803558	      6.40069093	      2.24154356	     -0.59352113	     -0.02664981	      0.68511960	     41.28589669	     -8.97026170	      1.66652672	    -30.90070349	     -7.92264550	    -10.14146948	     17.13281320	     -5.85838202	      8.92934937	     10.52585081	    -10.09825515	     12.46893132	     -0.00014292	     -3.06598639	      5.61792475	     -5.80698665	    -12.45267511
      3.71000000	     -8.52357271	      6.20787949	      2.45060486	     -0.58630367	     -0.02735524	      0.68486929	     41.08703208	     -8.82672139	      1.90136191	    -29.43399315	     -7.60489862	     -9.67413063	     16.91401871	     -6.11169384	      8.61615766	     10.12311519	    -10.19152962	     11.97783642	      0.80625643	     -0.65114230	      5.71158706	     -5.50794511	    -12.67773473
